<svg width="63" height="36" viewBox="0 0 63 36" fill="none" xmlns="http://www.w3.org/2000/svg">
  <path fill-rule="evenodd" clip-rule="evenodd" d="M56.0766 25.2353C56.0766 25.2353 61.1702 30.2634 62.4302 32.5902C62.4547 32.6237 62.4738 32.6609 62.4869 32.7004C63.0003 33.5599 63.1263 34.2337 62.8743 34.7312C62.4491 35.5529 61.0095 35.9654 60.5213 36H51.5186C50.8917 36 49.5876 35.8363 48 34.7406C46.7873 33.8937 45.5808 32.4989 44.4122 31.1356C42.6671 29.1111 41.1582 27.3542 39.6305 27.3542C39.4375 27.3538 39.2459 27.3857 39.0635 27.4487C37.9074 27.8139 36.4395 29.4606 36.4395 33.8464C36.4395 35.2192 35.3559 36 34.5968 36H30.4734C29.0685 36 21.7542 35.5088 15.2683 28.6734C7.32089 20.3047 0.182984 3.51688 0.113684 3.3689C-0.330467 2.28267 0.601934 1.69075 1.60994 1.69075H10.7008C11.9199 1.69075 12.3168 2.4275 12.594 3.08868C12.9153 3.84747 14.106 6.88263 16.059 10.2925C19.2216 15.8401 21.1652 18.0976 22.7181 18.0976C23.0099 18.0985 23.2967 18.0224 23.5497 17.8772C25.5783 16.7626 25.2003 9.52108 25.1058 8.02869C25.1058 7.73902 25.1027 4.79517 24.0632 3.37205C23.3198 2.35193 22.0535 1.95522 21.288 1.81039C21.4928 1.51443 21.9275 1.06105 22.485 0.793423C23.8742 0.100752 26.3847 0 28.8764 0H30.2592C32.9619 0.0377821 33.6612 0.210949 34.644 0.459681C36.6222 0.931957 36.66 2.2134 36.4868 6.57723C36.4364 7.82403 36.3828 9.22827 36.3828 10.8812C36.3828 11.2339 36.3671 11.6274 36.3671 12.0273C36.3072 14.2659 36.2285 16.7878 37.8098 17.8237C38.0149 17.9514 38.2517 18.019 38.4933 18.0189C39.0414 18.0189 40.6826 18.0189 45.1335 10.3838C47.0865 7.01172 48.5985 3.03516 48.7025 2.73605C48.7907 2.56918 49.0553 2.10005 49.3766 1.91114C49.6051 1.78959 49.8612 1.72888 50.12 1.73483H60.8142C61.9797 1.73483 62.7704 1.91114 62.9247 2.35193C63.183 3.06664 62.8743 5.24856 57.9918 11.8478C57.1697 12.9466 56.4483 13.8975 55.8152 14.7287C51.3894 20.5345 51.3894 20.8274 56.0766 25.2353Z" fill="#547EAE"/>
</svg>
